<svg viewBox="0 0 128 128" xmlns="http://www.w3.org/2000/svg">
  <path fill="#000" d="M64 0a64 64 0 0 0-20.2 124.7c3.2.6 4.4-1.4 4.4-3.1V112c-18.1 3.9-22-8.7-22-8.7-2.9-7.3-7-9.2-7-9.2-5.7-3.9.4-3.8.4-3.8 6.3.4 9.6 6.5 9.6 6.5 5.6 9.6 14.7 6.8 18.3 5.2.6-4 2.2-6.8 4-8.4-14.5-1.7-29.8-7.3-29.8-32.7 0-7.2 2.6-13.1 6.9-17.8-.7-1.7-3-8.5.6-17.8 0 0 5.5-1.7 18 6.8a62.5 62.5 0 0 1 32.8 0c12.5-8.5 18-6.8 18-6.8 3.6 9.3 1.3 16.1.6 17.8 4.3 4.7 6.9 10.6 6.9 17.8 0 25.5-15.3 31-29.8 32.6 2.3 2 4.3 5.9 4.3 11.9v17.7c0 1.7 1.1 3.8 4.4 3.1A64 64 0 0 0 64 0z"></path>
</svg>
