<?xml version="1.0" standalone="no"?>
<!DOCTYPE svg PUBLIC "-//W3C//DTD SVG 20010904//EN"
 "http://www.w3.org/TR/2001/REC-SVG-20010904/DTD/svg10.dtd">
<svg version="1.0" xmlns="http://www.w3.org/2000/svg"
 width="112.000000pt" height="53.000000pt" viewBox="0 0 112.000000 53.000000"
 preserveAspectRatio="xMidYMid meet">

<g transform="translate(0.000000,53.000000) scale(0.100000,-0.100000)"
fill="#000000" stroke="none">
<path d="M815 500 c3 -5 15 -10 26 -10 10 0 19 5 19 10 0 6 -12 10 -26 10 -14
0 -23 -4 -19 -10z"/>
<path d="M128 482 c-43 -28 -80 -67 -98 -102 -21 -43 -34 -133 -21 -157 5 -10
15 -34 22 -52 16 -44 63 -97 101 -117 17 -9 31 -14 33 -12 1 2 5 27 7 55 4 38
1 56 -9 65 -25 20 -43 66 -43 106 0 39 22 96 42 108 17 11 120 11 150 1 15 -5
64 -46 109 -93 45 -46 86 -81 91 -78 5 3 7 2 6 -3 -4 -13 155 -160 182 -168
14 -4 40 -14 57 -22 33 -15 117 -11 128 6 6 11 -90 91 -110 91 -8 0 -94 75
-191 167 -96 93 -193 179 -215 192 -34 20 -56 24 -130 26 -65 2 -95 -2 -111
-13z"/>
<path d="M689 466 c-24 -13 -43 -29 -41 -35 1 -6 -4 -11 -11 -11 -7 0 -26 -14
-42 -30 l-29 -30 37 -37 c30 -30 39 -35 49 -25 7 7 13 18 13 25 0 7 6 12 13
12 7 0 22 11 33 25 12 14 18 20 15 13 -5 -8 2 -8 21 2 35 19 65 19 108 1 49
-21 75 -68 75 -137 0 -47 -4 -59 -27 -81 -16 -15 -43 -30 -61 -35 l-33 -8 51
-42 c60 -49 66 -48 127 21 45 51 61 95 53 149 -4 32 -19 50 -105 127 -76 69
-102 87 -112 78 -10 -8 -12 -7 -7 5 7 18 -23 37 -59 37 -13 0 -44 -11 -68 -24z
m101 -40 c0 -2 -8 -10 -17 -17 -16 -13 -17 -12 -4 4 13 16 21 21 21 13z"/>
<path d="M863 472 c-9 -6 17 -36 83 -96 53 -48 98 -85 101 -82 11 11 -22 81
-55 118 -52 57 -99 79 -129 60z"/>
<path d="M375 180 c-48 -49 -101 -68 -149 -53 l-34 10 -5 -50 c-4 -27 -4 -53
-1 -58 2 -4 25 -11 50 -15 35 -5 49 -3 64 11 11 10 17 22 13 28 -3 6 -1 7 5 3
20 -12 111 27 144 62 l32 32 -34 35 c-19 19 -37 35 -40 35 -3 0 -24 -18 -45
-40z"/>
<path d="M397 52 c-21 -10 -35 -20 -31 -24 6 -7 84 28 84 37 0 8 -12 5 -53
-13z"/>
</g>
</svg>
