<svg viewBox="0 0 128 128" xmlns="http://www.w3.org/2000/svg">
  <path fill="#F7DF1E" d="M1.408 1.408h125.184v125.185H1.408z"></path>
  <path d="M89.6 106.89c2.363 3.862 5.447 6.673 10.893 6.673 4.57 0 7.494-2.283 7.494-5.448 0-3.79-3.01-5.13-8.078-7.336l-2.775-1.19c-8.01-3.418-13.328-7.705-13.328-16.74 0-8.33 6.348-14.676 16.278-14.676 7.07 0 12.153 2.46 15.807 8.91l-8.654 5.552c-1.902-3.418-3.958-4.77-7.153-4.77-3.26 0-5.335 2.075-5.335 4.77 0 3.34 2.075 4.68 6.868 6.744l2.775 1.19c9.428 4.042 14.746 8.198 14.746 17.465 0 9.99-7.843 15.413-18.37 15.413-10.3 0-16.923-4.92-20.13-11.34zm-46.225.967c1.76 3.13 3.35 5.79 7.153 5.79 3.648 0 5.95-1.43 5.95-7.003V61.345h10.934v44.368c0 11.325-6.627 16.466-16.31 16.466-8.747 0-13.808-4.522-16.392-9.99z" fill="#000"></path>
</svg>
